nColumns=28
nRows=33
DataType=double
version=3
OpenSimVersion=4.1
endheader
time	ground_force_1_vx	ground_force_1_vy	ground_force_1_vz	ground_force_1_px	ground_force_1_py	ground_force_1_pz	ground_force_1_mx	ground_force_1_my	ground_force_1_mz	ground_force_2_vx	ground_force_2_vy	ground_force_2_vz	ground_force_2_px	ground_force_2_py	ground_force_2_pz	ground_force_2_mx	ground_force_2_my	ground_force_2_mz	ground_force_3_vx	ground_force_3_vy	ground_force_3_vz	ground_force_3_px	ground_force_3_py	ground_force_3_pz	ground_force_3_mx	ground_force_3_my	ground_force_3_mz
0	1.00282	387.794	-40.8734	-0.210525	0.006	-0.449128	0	-1.50646	0	-2.89935	363.414	40.8111	-0.196771	0.006	-0.830603	0	2.43887	0	0	0	0	0	0	0	0	0	0
0.01	0.84457	387.605	-40.7746	-0.210239	0.006	-0.449056	0	-1.48204	0	-2.99974	363.757	40.8971	-0.195921	0.006	-0.83073	0	2.42967	0	0	0	0	0	0	0	0	0	0
0.02	0.663409	387.356	-40.6599	-0.2099	0.006	-0.448974	0	-1.45557	0	-3.13248	364.177	41.0119	-0.194879	0.006	-0.830888	0	2.41823	0	0	0	0	0	0	0	0	0	0
0.03	0.460351	387.043	-40.5294	-0.209509	0.006	-0.448882	0	-1.42712	0	-3.307	364.673	41.1578	-0.19364	0.006	-0.831079	0	2.40395	0	0	0	0	0	0	0	0	0	0
0.04	0.237009	386.667	-40.3837	-0.209068	0.006	-0.448782	0	-1.39664	0	-3.5359	365.236	41.3354	-0.192208	0.006	-0.831301	0	2.38585	0	0	0	0	0	0	0	0	0	0
0.05	-0.00499685	386.23	-40.2239	-0.208581	0.006	-0.448674	0	-1.36416	0	-3.83357	365.848	41.5447	-0.190596	0.006	-0.83155	0	2.3627	0	0	0	0	0	0	0	0	0	0
0.06	-0.264795	385.74	-40.0527	-0.208051	0.006	-0.448559	0	-1.32971	0	-4.21405	366.485	41.7836	-0.188829	0.006	-0.831822	0	2.33334	0	0	0	0	0	0	0	0	0	0
0.07	-0.542795	385.208	-39.8743	-0.207483	0.006	-0.448439	0	-1.29344	0	-4.68848	367.12	42.0479	-0.186935	0.006	-0.83211	0	2.29703	0	0	0	0	0	0	0	0	0	0
0.08	-0.840969	384.653	-39.6952	-0.206879	0.006	-0.448312	0	-1.25565	0	-5.26297	367.724	42.329	-0.184954	0.006	-0.832404	0	2.2537	0	0	0	0	0	0	0	0	0	0
0.09	-1.16338	384.095	-39.5231	-0.20624	0.006	-0.448179	0	-1.21682	0	-5.93691	368.27	42.6155	-0.182924	0.006	-0.832696	0	2.20389	0	0	0	0	0	0	0	0	0	0
0.1	-1.51689	383.555	-39.3668	-0.205565	0.006	-0.44804	0	-1.1776	0	-6.70265	368.731	42.8951	-0.180885	0.006	-0.832976	0	2.14853	0	0	0	0	0	0	0	0	0	0
0.11	-1.91131	383.051	-39.2354	-0.204854	0.006	-0.447894	0	-1.13878	0	-7.54703	369.086	43.1563	-0.178874	0.006	-0.833236	0	2.08885	0	0	0	0	0	0	0	0	0	0
0.12	-2.35855	382.597	-39.1376	-0.204104	0.006	-0.44774	0	-1.10128	0	-8.45399	369.317	43.3897	-0.176925	0.006	-0.83347	0	2.02634	0	0	0	0	0	0	0	0	0	0
0.13	-2.87018	382.203	-39.0808	-0.203315	0.006	-0.447577	0	-1.06603	0	-9.40707	369.413	43.5875	-0.175062	0.006	-0.833674	0	1.9626	0	0	0	0	0	0	0	0	0	0
0.14	-3.45444	381.874	-39.0701	-0.202486	0.006	-0.447405	0	-1.03393	0	-10.3916	369.364	43.7446	-0.173304	0.006	-0.833843	0	1.89915	0	0	0	0	0	0	0	0	0	0
0.15	-4.1149	381.613	-39.1072	-0.201619	0.006	-0.447222	0	-1.00591	0	-11.396	369.166	43.8585	-0.171662	0.006	-0.833979	0	1.83741	0	0	0	0	0	0	0	0	0	0
0.16	-4.85068	381.42	-39.1905	-0.200719	0.006	-0.447028	0	-0.982801	0	-12.412	368.811	43.9289	-0.170138	0.006	-0.834083	0	1.77872	0	0	0	0	0	0	0	0	0	0
0.17	-5.65717	381.292	-39.3161	-0.199788	0.006	-0.446824	0	-0.96524	0	-13.4334	368.288	43.9565	-0.168731	0.006	-0.834158	0	1.72432	0	0	0	0	0	0	0	0	0	0
0.18	-6.52758	381.223	-39.4798	-0.198833	0.006	-0.446611	0	-0.953551	0	-14.4554	367.578	43.9412	-0.167435	0.006	-0.834206	0	1.67524	0	0	0	0	0	0	0	0	0	0
0.19	-7.45425	381.2	-39.6778	-0.197857	0.006	-0.446387	0	-0.947779	0	-15.4735	366.652	43.882	-0.166244	0.006	-0.834231	0	1.63224	0	0	0	0	0	0	0	0	0	0
0.2	-8.42873	381.2	-39.9065	-0.196866	0.006	-0.446152	0	-0.947775	0	-16.4818	365.477	43.7764	-0.165151	0.006	-0.834236	0	1.59589	0	0	0	0	0	0	0	0	0	0
0.21	-9.44173	381.195	-40.1616	-0.195865	0.006	-0.445907	0	-0.953266	0	-17.4736	364.017	43.6206	-0.164149	0.006	-0.834222	0	1.56661	0	0	0	0	0	0	0	0	0	0
0.22	-10.4833	381.143	-40.4383	-0.194863	0.006	-0.445653	0	-0.963831	0	-18.4407	362.235	43.4102	-0.163235	0.006	-0.834191	0	1.54461	0	0	0	0	0	0	0	0	0	0
0.23	-11.5429	381	-40.7305	-0.193869	0.006	-0.445391	0	-0.979005	0	-19.3741	360.101	43.1397	-0.162408	0.006	-0.834143	0	1.52996	0	0	0	0	0	0	0	0	0	0
0.24	-12.6086	380.716	-41.0316	-0.192898	0.006	-0.445123	0	-0.998314	0	-20.2644	357.589	42.8038	-0.161672	0.006	-0.834077	0	1.52259	0	0	0	0	0	0	0	0	0	0
0.25	-13.6663	380.245	-41.3338	-0.191966	0.006	-0.444856	0	-1.02129	0	-21.1005	354.684	42.3978	-0.161036	0.006	-0.833993	0	1.52232	0	0	0	0	0	0	0	0	0	0
0.26	-14.6987	379.546	-41.6294	-0.191098	0.006	-0.444594	0	-1.04759	0	-21.869	351.386	41.9185	-0.160516	0.006	-0.833888	0	1.52879	0	0	0	0	0	0	0	0	0	0
0.27	-15.6844	378.594	-41.9103	-0.190322	0.006	-0.444346	0	-1.07711	0	-22.5538	347.708	41.365	-0.160139	0.006	-0.833758	0	1.5415	0	0	0	0	0	0	0	0	0	0
0.28	-16.5982	377.376	-42.1683	-0.189673	0.006	-0.444121	0	-1.10996	0	-23.1361	343.679	40.7402	-0.159935	0.006	-0.833599	0	1.5595	0	0	0	0	0	0	0	0	0	0
0.29	-17.4115	375.888	-42.395	-0.189188	0.006	-0.443931	0	-1.14643	0	-23.5935	339.34	40.0504	-0.159946	0.006	-0.833409	0	1.58159	0	0	0	0	0	0	0	0	0	0
0.3	-18.0935	374.128	-42.5822	-0.18891	0.006	-0.443785	0	-1.18691	0	-23.8988	334.738	39.3053	-0.160217	0.006	-0.833182	0	1.60645	0	0	0	0	0	0	0	0	0	0
0.31	-18.6136	372.091	-42.7213	-0.188878	0.006	-0.443694	0	-1.23184	0	-24.0185	329.917	38.5168	-0.160802	0.006	-0.832916	0	1.63281	0	0	0	0	0	0	0	0	0	0
0.32	-18.9459	369.757	-42.8039	-0.189127	0.006	-0.443669	0	-1.28168	0	-23.9143	324.914	37.6983	-0.161755	0.006	-0.832609	0	1.65934	0	0	0	0	0	0	0	0	0	0
